<svg xmlns="http://www.w3.org/2000/svg" style="cursor: move;" viewBox="607.3 116.41 1389.39 707.79"><g transform="translate(-1007.4972135770904,-583.1662095830321) scale(2.0804733218772564)"><path class="link" marker-end="" d="M811.1666666666666,426.5C901.1666666666666,426.5 901.1666666666666,346.5 991.1666666666666,346.5" style="stroke-width: 0.192888; stroke-opacity: 1; stroke: rgb(255, 211, 211); fill: none;"/><path class="link" marker-end="" d="M811.1666666666666,426.5C901.1666666666666,426.5 901.1666666666666,386.5 991.1666666666666,386.5" style="stroke-width: 0.51222; stroke-opacity: 1; stroke: rgb(139, 139, 255); fill: none;"/><path class="link" marker-end="" d="M811.1666666666666,426.5C901.1666666666666,426.5 901.1666666666666,426.5 991.1666666666666,426.5" style="stroke-width: 0.57349; stroke-opacity: 1; stroke: rgb(255, 126, 126); fill: none;"/><path class="link" marker-end="" d="M811.1666666666666,426.5C901.1666666666666,426.5 901.1666666666666,466.5 991.1666666666666,466.5" style="stroke-width: 0.282773; stroke-opacity: 1; stroke: rgb(191, 191, 255); fill: none;"/><path class="link" marker-end="" d="M811.1666666666666,426.5C901.1666666666666,426.5 901.1666666666666,506.5 991.1666666666666,506.5" style="stroke-width: 1.12302; stroke-opacity: 1; stroke: rgb(2, 2, 255); fill: none;"/><path class="link" marker-end="" d="M811.1666666666666,426.5C901.1666666666666,426.5 901.1666666666666,546.5 991.1666666666666,546.5" style="stroke-width: 0.163581; stroke-opacity: 1; stroke: rgb(218, 218, 255); fill: none;"/><path class="link" marker-end="" d="M811.1666666666666,426.5C901.1666666666666,426.5 901.1666666666666,586.5 991.1666666666666,586.5" style="stroke-width: 0.0955988; stroke-opacity: 1; stroke: rgb(255, 233, 233); fill: none;"/><path class="link" marker-end="" d="M811.1666666666666,426.5C901.1666666666666,426.5 901.1666666666666,626.5 991.1666666666666,626.5" style="stroke-width: 0.235406; stroke-opacity: 1; stroke: rgb(255, 202, 202); fill: none;"/><path class="link" marker-end="" d="M811.1666666666666,466.5C901.1666666666666,466.5 901.1666666666666,346.5 991.1666666666666,346.5" style="stroke-width: 0.808817; stroke-opacity: 1; stroke: rgb(255, 72, 72); fill: none;"/><path class="link" marker-end="" d="M811.1666666666666,466.5C901.1666666666666,466.5 901.1666666666666,386.5 991.1666666666666,386.5" style="stroke-width: 0.434726; stroke-opacity: 1; stroke: rgb(255, 157, 157); fill: none;"/><path class="link" marker-end="" d="M811.1666666666666,466.5C901.1666666666666,466.5 901.1666666666666,426.5 991.1666666666666,426.5" style="stroke-width: 0.457626; stroke-opacity: 1; stroke: rgb(152, 152, 255); fill: none;"/><path class="link" marker-end="" d="M811.1666666666666,466.5C901.1666666666666,466.5 901.1666666666666,466.5 991.1666666666666,466.5" style="stroke-width: 0.772659; stroke-opacity: 1; stroke: rgb(81, 81, 255); fill: none;"/><path class="link" marker-end="" d="M811.1666666666666,466.5C901.1666666666666,466.5 901.1666666666666,506.5 991.1666666666666,506.5" style="stroke-width: 0.774415; stroke-opacity: 1; stroke: rgb(255, 80, 80); fill: none;"/><path class="link" marker-end="" d="M811.1666666666666,466.5C901.1666666666666,466.5 901.1666666666666,546.5 991.1666666666666,546.5" style="stroke-width: 0.788226; stroke-opacity: 1; stroke: rgb(255, 77, 77); fill: none;"/><path class="link" marker-end="" d="M811.1666666666666,466.5C901.1666666666666,466.5 901.1666666666666,586.5 991.1666666666666,586.5" style="stroke-width: 0.503252; stroke-opacity: 1; stroke: rgb(141, 141, 255); fill: none;"/><path class="link" marker-end="" d="M811.1666666666666,466.5C901.1666666666666,466.5 901.1666666666666,626.5 991.1666666666666,626.5" style="stroke-width: 0.905803; stroke-opacity: 1; stroke: rgb(255, 51, 51); fill: none;"/><path class="link" marker-end="" d="M811.1666666666666,506.5C901.1666666666666,506.5 901.1666666666666,346.5 991.1666666666666,346.5" style="stroke-width: 0.026048; stroke-opacity: 1; stroke: rgb(255, 249, 249); fill: none;"/><path class="link" marker-end="" d="M811.1666666666666,506.5C901.1666666666666,506.5 901.1666666666666,386.5 991.1666666666666,386.5" style="stroke-width: 0.236074; stroke-opacity: 1; stroke: rgb(255, 202, 202); fill: none;"/><path class="link" marker-end="" d="M811.1666666666666,506.5C901.1666666666666,506.5 901.1666666666666,426.5 991.1666666666666,426.5" style="stroke-width: 0.727337; stroke-opacity: 1; stroke: rgb(255, 91, 91); fill: none;"/><path class="link" marker-end="" d="M811.1666666666666,506.5C901.1666666666666,506.5 901.1666666666666,466.5 991.1666666666666,466.5" style="stroke-width: 0.968121; stroke-opacity: 1; stroke: rgb(37, 37, 255); fill: none;"/><path class="link" marker-end="" d="M811.1666666666666,506.5C901.1666666666666,506.5 901.1666666666666,506.5 991.1666666666666,506.5" style="stroke-width: 0.923294; stroke-opacity: 1; stroke: rgb(255, 47, 47); fill: none;"/><path class="link" marker-end="" d="M811.1666666666666,506.5C901.1666666666666,506.5 901.1666666666666,546.5 991.1666666666666,546.5" style="stroke-width: 1.12267; stroke-opacity: 1; stroke: rgb(2, 2, 255); fill: none;"/><path class="link" marker-end="" d="M811.1666666666666,506.5C901.1666666666666,506.5 901.1666666666666,586.5 991.1666666666666,586.5" style="stroke-width: 0.57231; stroke-opacity: 1; stroke: rgb(126, 126, 255); fill: none;"/><path class="link" marker-end="" d="M811.1666666666666,506.5C901.1666666666666,506.5 901.1666666666666,626.5 991.1666666666666,626.5" style="stroke-width: 0.402583; stroke-opacity: 1; stroke: rgb(255, 164, 164); fill: none;"/><path class="link" marker-end="" d="M811.1666666666666,546.5C901.1666666666666,546.5 901.1666666666666,346.5 991.1666666666666,346.5" style="stroke-width: 0.0664607; stroke-opacity: 1; stroke: rgb(255, 240, 240); fill: none;"/><path class="link" marker-end="" d="M811.1666666666666,546.5C901.1666666666666,546.5 901.1666666666666,386.5 991.1666666666666,386.5" style="stroke-width: 0.440643; stroke-opacity: 1; stroke: rgb(156, 156, 255); fill: none;"/><path class="link" marker-end="" d="M811.1666666666666,546.5C901.1666666666666,546.5 901.1666666666666,426.5 991.1666666666666,426.5" style="stroke-width: 0.169716; stroke-opacity: 1; stroke: rgb(217, 217, 255); fill: none;"/><path class="link" marker-end="" d="M811.1666666666666,546.5C901.1666666666666,546.5 901.1666666666666,466.5 991.1666666666666,466.5" style="stroke-width: 0.62659; stroke-opacity: 1; stroke: rgb(114, 114, 255); fill: none;"/><path class="link" marker-end="" d="M811.1666666666666,546.5C901.1666666666666,546.5 901.1666666666666,506.5 991.1666666666666,506.5" style="stroke-width: 1.0636; stroke-opacity: 1; stroke: rgb(15, 15, 255); fill: none;"/><path class="link" marker-end="" d="M811.1666666666666,546.5C901.1666666666666,546.5 901.1666666666666,546.5 991.1666666666666,546.5" style="stroke-width: 0.0389166; stroke-opacity: 1; stroke: rgb(255, 246, 246); fill: none;"/><path class="link" marker-end="" d="M811.1666666666666,546.5C901.1666666666666,546.5 901.1666666666666,586.5 991.1666666666666,586.5" style="stroke-width: 0.311592; stroke-opacity: 1; stroke: rgb(255, 185, 185); fill: none;"/><path class="link" marker-end="" d="M811.1666666666666,546.5C901.1666666666666,546.5 901.1666666666666,626.5 991.1666666666666,626.5" style="stroke-width: 0.417667; stroke-opacity: 1; stroke: rgb(255, 161, 161); fill: none;"/><path class="link" marker-end="" d="M991.1666666666666,346.5C1081.1666666666667,346.5 1081.1666666666667,426.5 1171.1666666666667,426.5" style="stroke-width: 0.911955; stroke-opacity: 1; stroke: rgb(255, 49, 49); fill: none;"/><path class="link" marker-end="" d="M991.1666666666666,346.5C1081.1666666666667,346.5 1081.1666666666667,466.5 1171.1666666666667,466.5" style="stroke-width: 0.756617; stroke-opacity: 1; stroke: rgb(84, 84, 255); fill: none;"/><path class="link" marker-end="" d="M991.1666666666666,346.5C1081.1666666666667,346.5 1081.1666666666667,506.5 1171.1666666666667,506.5" style="stroke-width: 0.0986793; stroke-opacity: 1; stroke: rgb(233, 233, 255); fill: none;"/><path class="link" marker-end="" d="M991.1666666666666,346.5C1081.1666666666667,346.5 1081.1666666666667,546.5 1171.1666666666667,546.5" style="stroke-width: 1.12965; stroke-opacity: 1; stroke: rgb(0, 0, 255); fill: none;"/><path class="link" marker-end="" d="M991.1666666666666,386.5C1081.1666666666667,386.5 1081.1666666666667,426.5 1171.1666666666667,426.5" style="stroke-width: 0.859645; stroke-opacity: 1; stroke: rgb(255, 61, 61); fill: none;"/><path class="link" marker-end="" d="M991.1666666666666,386.5C1081.1666666666667,386.5 1081.1666666666667,466.5 1171.1666666666667,466.5" style="stroke-width: 0.123709; stroke-opacity: 1; stroke: rgb(227, 227, 255); fill: none;"/><path class="link" marker-end="" d="M991.1666666666666,386.5C1081.1666666666667,386.5 1081.1666666666667,506.5 1171.1666666666667,506.5" style="stroke-width: 0.554044; stroke-opacity: 1; stroke: rgb(255, 130, 130); fill: none;"/><path class="link" marker-end="" d="M991.1666666666666,386.5C1081.1666666666667,386.5 1081.1666666666667,546.5 1171.1666666666667,546.5" style="stroke-width: 0.279059; stroke-opacity: 1; stroke: rgb(255, 192, 192); fill: none;"/><path class="link" marker-end="" d="M991.1666666666666,426.5C1081.1666666666667,426.5 1081.1666666666667,426.5 1171.1666666666667,426.5" style="stroke-width: 0.570323; stroke-opacity: 1; stroke: rgb(255, 126, 126); fill: none;"/><path class="link" marker-end="" d="M991.1666666666666,426.5C1081.1666666666667,426.5 1081.1666666666667,466.5 1171.1666666666667,466.5" style="stroke-width: 0.5692; stroke-opacity: 1; stroke: rgb(127, 127, 255); fill: none;"/><path class="link" marker-end="" d="M991.1666666666666,426.5C1081.1666666666667,426.5 1081.1666666666667,506.5 1171.1666666666667,506.5" style="stroke-width: 0.159977; stroke-opacity: 1; stroke: rgb(219, 219, 255); fill: none;"/><path class="link" marker-end="" d="M991.1666666666666,426.5C1081.1666666666667,426.5 1081.1666666666667,546.5 1171.1666666666667,546.5" style="stroke-width: 0.533926; stroke-opacity: 1; stroke: rgb(135, 135, 255); fill: none;"/><path class="link" marker-end="" d="M991.1666666666666,466.5C1081.1666666666667,466.5 1081.1666666666667,426.5 1171.1666666666667,426.5" style="stroke-width: 0.0148279; stroke-opacity: 1; stroke: rgb(252, 252, 255); fill: none;"/><path class="link" marker-end="" d="M991.1666666666666,466.5C1081.1666666666667,466.5 1081.1666666666667,466.5 1171.1666666666667,466.5" style="stroke-width: 0.131469; stroke-opacity: 1; stroke: rgb(255, 225, 225); fill: none;"/><path class="link" marker-end="" d="M991.1666666666666,466.5C1081.1666666666667,466.5 1081.1666666666667,506.5 1171.1666666666667,506.5" style="stroke-width: 0.912405; stroke-opacity: 1; stroke: rgb(255, 49, 49); fill: none;"/><path class="link" marker-end="" d="M991.1666666666666,466.5C1081.1666666666667,466.5 1081.1666666666667,546.5 1171.1666666666667,546.5" style="stroke-width: 0.661826; stroke-opacity: 1; stroke: rgb(106, 106, 255); fill: none;"/><path class="link" marker-end="" d="M991.1666666666666,506.5C1081.1666666666667,506.5 1081.1666666666667,426.5 1171.1666666666667,426.5" style="stroke-width: 0.0526442; stroke-opacity: 1; stroke: rgb(243, 243, 255); fill: none;"/><path class="link" marker-end="" d="M991.1666666666666,506.5C1081.1666666666667,506.5 1081.1666666666667,466.5 1171.1666666666667,466.5" style="stroke-width: 0.91156; stroke-opacity: 1; stroke: rgb(255, 49, 49); fill: none;"/><path class="link" marker-end="" d="M991.1666666666666,506.5C1081.1666666666667,506.5 1081.1666666666667,506.5 1171.1666666666667,506.5" style="stroke-width: 0.145969; stroke-opacity: 1; stroke: rgb(255, 222, 222); fill: none;"/><path class="link" marker-end="" d="M991.1666666666666,506.5C1081.1666666666667,506.5 1081.1666666666667,546.5 1171.1666666666667,546.5" style="stroke-width: 0.958973; stroke-opacity: 1; stroke: rgb(39, 39, 255); fill: none;"/><path class="link" marker-end="" d="M991.1666666666666,546.5C1081.1666666666667,546.5 1081.1666666666667,426.5 1171.1666666666667,426.5" style="stroke-width: 1.1039; stroke-opacity: 1; stroke: rgb(6, 6, 255); fill: none;"/><path class="link" marker-end="" d="M991.1666666666666,546.5C1081.1666666666667,546.5 1081.1666666666667,466.5 1171.1666666666667,466.5" style="stroke-width: 0.67281; stroke-opacity: 1; stroke: rgb(103, 103, 255); fill: none;"/><path class="link" marker-end="" d="M991.1666666666666,546.5C1081.1666666666667,546.5 1081.1666666666667,506.5 1171.1666666666667,506.5" style="stroke-width: 0.485855; stroke-opacity: 1; stroke: rgb(255, 145, 145); fill: none;"/><path class="link" marker-end="" d="M991.1666666666666,546.5C1081.1666666666667,546.5 1081.1666666666667,546.5 1171.1666666666667,546.5" style="stroke-width: 0.105473; stroke-opacity: 1; stroke: rgb(255, 231, 231); fill: none;"/><path class="link" marker-end="" d="M991.1666666666666,586.5C1081.1666666666667,586.5 1081.1666666666667,426.5 1171.1666666666667,426.5" style="stroke-width: 0.309383; stroke-opacity: 1; stroke: rgb(255, 185, 185); fill: none;"/><path class="link" marker-end="" d="M991.1666666666666,586.5C1081.1666666666667,586.5 1081.1666666666667,466.5 1171.1666666666667,466.5" style="stroke-width: 0.458835; stroke-opacity: 1; stroke: rgb(151, 151, 255); fill: none;"/><path class="link" marker-end="" d="M991.1666666666666,586.5C1081.1666666666667,586.5 1081.1666666666667,506.5 1171.1666666666667,506.5" style="stroke-width: 0.846178; stroke-opacity: 1; stroke: rgb(64, 64, 255); fill: none;"/><path class="link" marker-end="" d="M991.1666666666666,586.5C1081.1666666666667,586.5 1081.1666666666667,546.5 1171.1666666666667,546.5" style="stroke-width: 0.480888; stroke-opacity: 1; stroke: rgb(146, 146, 255); fill: none;"/><path class="link" marker-end="" d="M991.1666666666666,626.5C1081.1666666666667,626.5 1081.1666666666667,426.5 1171.1666666666667,426.5" style="stroke-width: 0.305641; stroke-opacity: 1; stroke: rgb(255, 186, 186); fill: none;"/><path class="link" marker-end="" d="M991.1666666666666,626.5C1081.1666666666667,626.5 1081.1666666666667,466.5 1171.1666666666667,466.5" style="stroke-width: 0.216376; stroke-opacity: 1; stroke: rgb(255, 206, 206); fill: none;"/><path class="link" marker-end="" d="M991.1666666666666,626.5C1081.1666666666667,626.5 1081.1666666666667,506.5 1171.1666666666667,506.5" style="stroke-width: 1.10027; stroke-opacity: 1; stroke: rgb(7, 7, 255); fill: none;"/><path class="link" marker-end="" d="M991.1666666666666,626.5C1081.1666666666667,626.5 1081.1666666666667,546.5 1171.1666666666667,546.5" style="stroke-width: 0.320394; stroke-opacity: 1; stroke: rgb(183, 183, 255); fill: none;"/><path class="link" marker-end="" d="M1171.1666666666667,426.5C1261.1666666666667,426.5 1261.1666666666667,446.5 1351.1666666666667,446.5" style="stroke-width: 0.0700026; stroke-opacity: 1; stroke: rgb(255, 239, 239); fill: none;"/><path class="link" marker-end="" d="M1171.1666666666667,466.5C1261.1666666666667,466.5 1261.1666666666667,446.5 1351.1666666666667,446.5" style="stroke-width: 0.773541; stroke-opacity: 1; stroke: rgb(80, 80, 255); fill: none;"/><path class="link" marker-end="" d="M1171.1666666666667,506.5C1261.1666666666667,506.5 1261.1666666666667,446.5 1351.1666666666667,446.5" style="stroke-width: 0.761034; stroke-opacity: 1; stroke: rgb(255, 83, 83); fill: none;"/><path class="link" marker-end="" d="M1171.1666666666667,546.5C1261.1666666666667,546.5 1261.1666666666667,446.5 1351.1666666666667,446.5" style="stroke-width: 0.246462; stroke-opacity: 1; stroke: rgb(255, 199, 199); fill: none;"/><path class="link" marker-end="" d="M1171.1666666666667,426.5C1261.1666666666667,426.5 1261.1666666666667,486.5 1351.1666666666667,486.5" style="stroke-width: 1.08905; stroke-opacity: 1; stroke: rgb(255, 9, 9); fill: none;"/><path class="link" marker-end="" d="M1171.1666666666667,426.5C1261.1666666666667,426.5 1261.1666666666667,526.5 1351.1666666666667,526.5" style="stroke-width: 1.03642; stroke-opacity: 1; stroke: rgb(255, 21, 21); fill: none;"/><path class="link" marker-end="" d="M1171.1666666666667,466.5C1261.1666666666667,466.5 1261.1666666666667,486.5 1351.1666666666667,486.5" style="stroke-width: 0.343891; stroke-opacity: 1; stroke: rgb(255, 177, 177); fill: none;"/><path class="link" marker-end="" d="M1171.1666666666667,466.5C1261.1666666666667,466.5 1261.1666666666667,526.5 1351.1666666666667,526.5" style="stroke-width: 0.382663; stroke-opacity: 1; stroke: rgb(169, 169, 255); fill: none;"/><path class="link" marker-end="" d="M1171.1666666666667,506.5C1261.1666666666667,506.5 1261.1666666666667,486.5 1351.1666666666667,486.5" style="stroke-width: 0.197781; stroke-opacity: 1; stroke: rgb(255, 210, 210); fill: none;"/><path class="link" marker-end="" d="M1171.1666666666667,506.5C1261.1666666666667,506.5 1261.1666666666667,526.5 1351.1666666666667,526.5" style="stroke-width: 0.137311; stroke-opacity: 1; stroke: rgb(224, 224, 255); fill: none;"/><path class="link" marker-end="" d="M1171.1666666666667,546.5C1261.1666666666667,546.5 1261.1666666666667,486.5 1351.1666666666667,486.5" style="stroke-width: 0.749168; stroke-opacity: 1; stroke: rgb(86, 86, 255); fill: none;"/><path class="link" marker-end="" d="M1171.1666666666667,546.5C1261.1666666666667,546.5 1261.1666666666667,526.5 1351.1666666666667,526.5" style="stroke-width: 0.303535; stroke-opacity: 1; stroke: rgb(187, 187, 255); fill: none;"/><circle r="10" class="node" id="0_0" cx="811.1666666666666" cy="426.5" style="fill: rgb(255, 255, 255); stroke: rgb(51, 51, 51);"/><circle r="10" class="node" id="0_1" cx="811.1666666666666" cy="466.5" style="fill: rgb(255, 255, 255); stroke: rgb(51, 51, 51);"/><circle r="10" class="node" id="0_2" cx="811.1666666666666" cy="506.5" style="fill: rgb(255, 255, 255); stroke: rgb(51, 51, 51);"/><circle r="10" class="node" id="0_3" cx="811.1666666666666" cy="546.5" style="fill: rgb(255, 255, 255); stroke: rgb(51, 51, 51);"/><circle r="10" class="node" id="1_0" cx="991.1666666666666" cy="346.5" style="fill: rgb(255, 255, 255); stroke: rgb(51, 51, 51);"/><circle r="10" class="node" id="1_1" cx="991.1666666666666" cy="386.5" style="fill: rgb(255, 255, 255); stroke: rgb(51, 51, 51);"/><circle r="10" class="node" id="1_2" cx="991.1666666666666" cy="426.5" style="fill: rgb(255, 255, 255); stroke: rgb(51, 51, 51);"/><circle r="10" class="node" id="1_3" cx="991.1666666666666" cy="466.5" style="fill: rgb(255, 255, 255); stroke: rgb(51, 51, 51);"/><circle r="10" class="node" id="1_4" cx="991.1666666666666" cy="506.5" style="fill: rgb(255, 255, 255); stroke: rgb(51, 51, 51);"/><circle r="10" class="node" id="1_5" cx="991.1666666666666" cy="546.5" style="fill: rgb(255, 255, 255); stroke: rgb(51, 51, 51);"/><circle r="10" class="node" id="1_6" cx="991.1666666666666" cy="586.5" style="fill: rgb(255, 255, 255); stroke: rgb(51, 51, 51);"/><circle r="10" class="node" id="1_7" cx="991.1666666666666" cy="626.5" style="fill: rgb(255, 255, 255); stroke: rgb(51, 51, 51);"/><circle r="10" class="node" id="2_0" cx="1171.1666666666667" cy="426.5" style="fill: rgb(255, 255, 255); stroke: rgb(51, 51, 51);"/><circle r="10" class="node" id="2_1" cx="1171.1666666666667" cy="466.5" style="fill: rgb(255, 255, 255); stroke: rgb(51, 51, 51);"/><circle r="10" class="node" id="2_2" cx="1171.1666666666667" cy="506.5" style="fill: rgb(255, 255, 255); stroke: rgb(51, 51, 51);"/><circle r="10" class="node" id="2_3" cx="1171.1666666666667" cy="546.5" style="fill: rgb(255, 255, 255); stroke: rgb(51, 51, 51);"/><circle r="10" class="node" id="3_0" cx="1351.1666666666667" cy="446.5" style="fill: rgb(255, 255, 255); stroke: rgb(51, 51, 51);"/><text class="text" dy=".35em" x="776.1666666666666" y="666.5" style="font-size: 12px;">Input Layer ∈ ℝ⁴</text><text class="text" dy=".35em" x="956.1666666666666" y="666.5" style="font-size: 12px;">Hidden Layer ∈ ℝ⁸</text><text class="text" dy=".35em" x="1136.1666666666667" y="666.5" style="font-size: 12px;">Hidden Layer ∈ ℝ⁴</text><text class="text" dy=".35em" x="1316.1666666666667" y="666.5" style="font-size: 12px;">Output Layer ∈ ℝ³</text><circle r="10" class="node" id="3_1" cx="1351.1666666666667" cy="486.5" style="fill: rgb(255, 255, 255); stroke: rgb(51, 51, 51);"/><circle r="10" class="node" id="3_2" cx="1351.1666666666667" cy="526.5" style="fill: rgb(255, 255, 255); stroke: rgb(51, 51, 51);"/></g><defs><marker id="arrow" viewBox="0 -5 10 10" markerWidth="7" markerHeight="7" orient="auto" refX="40"><path d="M0,-5L10,0L0,5" style="stroke: rgb(80, 80, 80); fill: none;"/></marker></defs></svg>